<?xml version="1.0" encoding="UTF-8"?>
<svg version="1.1" viewBox="0 0 256 134" xmlns="http://www.w3.org/2000/svg">
<g transform="matrix(3.3275 0 0 3.3275 .5 .44753)">
<path class="a" d="m23.634 12.915v17.908h-3.531v-17.908z"/>
<path class="a" d="m28.776 28.495a9.665 9.665 0 0 1 0-13.265 8.979 8.979 0 0 1 6.677-2.673 9.128 9.128 0 0 1 4.49 1.138 8.332 8.332 0 0 1 3.21 3.083l-3.044 1.765a4.737 4.737 0 0 0-1.893-1.88 6.127 6.127 0 0 0-6.971 0.959 6.405 6.405 0 0 0 0 8.468 5.612 5.612 0 0 0 4.208 1.637 5.7 5.7 0 0 0 2.776-0.678 4.589 4.589 0 0 0 1.88-1.854l3.044 1.765a8.351 8.351 0 0 1-3.2 3.082 9.1 9.1 0 0 1-4.5 1.139 8.959 8.959 0 0 1-6.677-2.686z"/>
<path class="a" d="m56.405 27.446v3.377h-11.077v-17.908h10.949v3.377h-7.419v3.812h6.78v3.325h-6.78v4.017z"/>
<path class="a" d="m60.64 28.482a9.4 9.4 0 1 1 6.587 2.7 8.99 8.99 0 0 1-6.587-2.7zm10.706-2.4a6.172 6.172 0 0 0 0-8.429 5.933 5.933 0 0 0-8.238 0 6.172 6.172 0 0 0 0 8.429 5.966 5.966 0 0 0 8.238 0z"/>
<circle class="b" cx="21.912" cy="2.822" r="2.822" fill="#ff102c"/>
<circle class="b" cx="11.013" cy="7.971" r="4.233" fill="#ff102c"/>
<circle class="b" cx="5.644" cy="21.869" r="5.644" fill="#ff102c"/>
<circle class="b" cx="11.013" cy="35.768" r="4.233" fill="#ff102c"/>
</g>
</svg>
